<svg xmlns="http://www.w3.org/2000/svg" xmlns:xlink="http://www.w3.org/1999/xlink" preserveAspectRatio="xMidYMid" width="16.124" height="16.12" viewBox="0 0 16.124 16.12">
  <defs>
    <style>
      .cls-1 {
        fill: #e25e5e;
        fill-rule: evenodd;
      }
    </style>
  </defs>
  <path d="M10.890,8.060 L15.840,13.009 C16.231,13.400 16.231,14.033 15.840,14.424 L14.426,15.838 C14.035,16.229 13.402,16.229 13.012,15.838 L8.062,10.888 L3.112,15.838 C2.722,16.229 2.088,16.229 1.698,15.838 L0.284,14.424 C-0.107,14.033 -0.107,13.400 0.284,13.009 L5.234,8.060 L0.284,3.110 C-0.107,2.720 -0.107,2.086 0.284,1.696 L1.698,0.282 C2.088,-0.109 2.722,-0.109 3.112,0.282 L8.062,5.231 L13.012,0.282 C13.402,-0.109 14.035,-0.109 14.426,0.282 L15.840,1.696 C16.231,2.086 16.231,2.720 15.840,3.110 L10.890,8.060 Z" class="cls-1"/>
</svg>
