<svg xmlns="http://www.w3.org/2000/svg" xmlns:xlink="http://www.w3.org/1999/xlink" preserveAspectRatio="xMidYMid" width="11" height="11" viewBox="0 0 11 11">
  <defs>
    <style>
      .cls-1 {
        fill: #2381d1;
        fill-rule: evenodd;
      }
    </style>
  </defs>
  <path d="M10.198,11.000 L0.801,11.000 C0.359,11.000 0.000,10.642 0.000,10.200 L0.000,1.809 C0.000,1.367 0.359,1.009 0.801,1.009 L1.987,1.009 L1.987,-0.000 L2.989,-0.000 L2.989,1.009 L7.995,1.009 L7.995,-0.000 L8.996,-0.000 L8.996,1.009 L10.198,1.009 C10.641,1.009 10.999,1.367 10.999,1.809 L10.999,10.200 C10.999,10.642 10.641,11.000 10.198,11.000 ZM9.998,2.000 L0.985,2.000 L0.985,4.000 L9.998,4.000 L9.998,2.000 ZM9.998,5.000 L0.985,5.000 L0.985,10.000 L9.998,10.000 L9.998,5.000 ZM2.996,9.000 L1.994,9.000 L1.994,8.000 L2.996,8.000 L2.996,9.000 ZM4.996,9.000 L3.994,9.000 L3.994,8.000 L4.996,8.000 L4.996,9.000 ZM3.997,6.000 L4.999,6.000 L4.999,7.000 L3.997,7.000 L3.997,6.000 ZM6.999,7.000 L5.997,7.000 L5.997,6.000 L6.999,6.000 L6.999,7.000 ZM6.999,9.000 L5.997,9.000 L5.997,8.000 L6.999,8.000 L6.999,9.000 ZM9.002,7.000 L8.000,7.000 L8.000,6.000 L9.002,6.000 L9.002,7.000 Z" class="cls-1"/>
</svg>
